<?xml version="1.0" encoding="utf-8"?>
<!-- Generator: Adobe Illustrator 22.1.0, SVG Export Plug-In . SVG Version: 6.00 Build 0)  -->
<svg version="1.1" id="Capa_1" xmlns="http://www.w3.org/2000/svg" xmlns:xlink="http://www.w3.org/1999/xlink" x="0px" y="0px"
	 viewBox="0 0 303.5 125.3" style="enable-background:new 0 0 303.5 125.3;" xml:space="preserve">
<style type="text/css">
	.st0{fill:#7CAC3B;}
</style>
<g>
	<path class="st0" d="M57.8,49.5H44.3v-7.9H81v7.9H67.5v34.2h-9.7V49.5z"/>
	<path class="st0" d="M86.2,41.6H96v42.1h-9.7V41.6z"/>
	<path class="st0" d="M114.5,81.6c-3.5-1.9-6.2-4.5-8.2-7.8c-2-3.3-3-7-3-11.2c0-4.2,1-7.9,3-11.2c2-3.3,4.7-5.9,8.2-7.8
		c3.5-1.9,7.4-2.8,11.7-2.8c3.6,0,6.9,0.6,9.9,1.9c2.9,1.3,5.4,3.1,7.4,5.5l-6.3,5.8c-2.8-3.3-6.4-4.9-10.6-4.9
		c-2.6,0-4.9,0.6-7,1.7c-2,1.1-3.6,2.7-4.8,4.8s-1.7,4.4-1.7,7c0,2.6,0.6,4.9,1.7,7s2.7,3.6,4.8,4.8c2,1.1,4.4,1.7,7,1.7
		c4.2,0,7.7-1.7,10.6-5l6.3,5.8c-2,2.4-4.5,4.3-7.5,5.6c-3,1.3-6.3,1.9-9.9,1.9C121.8,84.4,117.9,83.5,114.5,81.6z"/>
	<path class="st0" d="M165.4,67.2l-5.7,5.9v10.6H150V41.6h9.7v19.7l18.6-19.7h10.8l-17.4,18.8l18.5,23.3h-11.4L165.4,67.2z"/>
	<path class="st0" d="M227.1,75.9v7.8h-32.6V41.6h31.8v7.8h-22.1v9.1h19.5v7.6h-19.5v9.7H227.1z"/>
	<path class="st0" d="M243.6,49.5h-13.5v-7.9h36.7v7.9h-13.5v34.2h-9.7V49.5z"/>
	<path class="st0" d="M276,83.1c-3.1-0.9-5.6-2.1-7.5-3.5l3.3-7.3c1.8,1.3,3.9,2.4,6.4,3.2c2.5,0.8,5,1.2,7.5,1.2
		c2.8,0,4.8-0.4,6.1-1.2c1.3-0.8,2-1.9,2-3.3c0-1-0.4-1.8-1.2-2.5s-1.8-1.2-3-1.6c-1.2-0.4-2.9-0.8-5-1.3c-3.2-0.8-5.8-1.5-7.9-2.3
		c-2-0.8-3.8-2-5.3-3.7c-1.5-1.7-2.2-3.9-2.2-6.7c0-2.4,0.7-4.7,2-6.6c1.3-2,3.3-3.6,6-4.7c2.7-1.2,5.9-1.7,9.8-1.7
		c2.7,0,5.3,0.3,7.9,1c2.6,0.6,4.8,1.6,6.7,2.8l-3,7.4c-3.9-2.2-7.8-3.3-11.7-3.3c-2.7,0-4.7,0.4-6,1.3c-1.3,0.9-2,2-2,3.5
		s0.8,2.5,2.3,3.2c1.5,0.7,3.8,1.4,6.9,2.1c3.2,0.8,5.8,1.5,7.9,2.3c2,0.8,3.8,2,5.3,3.6c1.5,1.6,2.2,3.9,2.2,6.7
		c0,2.4-0.7,4.6-2,6.6c-1.3,2-3.4,3.6-6,4.7c-2.7,1.2-6,1.7-9.8,1.7C282.3,84.4,279.1,84,276,83.1z"/>
</g>
<path class="st0" d="M101.5,88.4c-8.4,12.6-22.7,20.9-38.8,20.9C36.9,109.3,16,88.4,16,62.7S36.9,16,62.7,16
	c16.1,0,30.2,8.2,38.6,20.5h18.3C109.7,15,87.9,0,62.7,0C28.1,0,0,28.1,0,62.7c0,34.5,28.1,62.7,62.7,62.7
	c25.4,0,47.2-15.1,57.1-36.9H101.5z"/>
</svg>
